<svg xmlns="http://www.w3.org/2000/svg" viewBox="0 0 64 64" width="64" height="64">
  <defs>
    <linearGradient id="bg" x1="0" y1="0" x2="1" y2="1">
      <stop offset="0%" stop-color="#4f8ef7" />
      <stop offset="100%" stop-color="#1f5fd4" />
    </linearGradient>
  </defs>
  <rect x="4" y="4" width="56" height="56" rx="14" fill="url(#bg)" />
  <rect x="14" y="14" width="36" height="36" rx="8" fill="#ffffff" opacity="0.95" />
  <circle cx="22" cy="25" r="2.6" fill="#1f5fd4" />
  <rect x="28" y="23.3" width="16" height="3.4" rx="1.7" fill="#86a8f6" />
  <circle cx="22" cy="34" r="2.6" fill="#1f5fd4" />
  <rect x="28" y="32.3" width="10" height="3.4" rx="1.7" fill="#86a8f6" />
  <path d="M40.3 34.2l3.1 3.1 6.2-6.5" fill="none" stroke="#16a34a" stroke-width="3.4" stroke-linecap="round" stroke-linejoin="round" />
  <circle cx="49.8" cy="14.2" r="5.2" fill="#ffd44f" />
  <path d="M49.8 9.9l1.1 2.2 2.4.3-1.8 1.7.4 2.4-2.1-1.1-2.1 1.1.4-2.4-1.8-1.7 2.4-.3z" fill="#f59e0b" />
</svg>
